<svg xmlns="http://www.w3.org/2000/svg" width="27" height="27" viewBox="0 0 27 27">
  <path fill="#555" d="M42.3149211,34.5819129 C42.3149211,32.6196583 41.6175252,30.9411351 40.2227334,29.5463433 C38.8279417,28.1515515 37.1494185,27.4541557 35.1871639,27.4541557 C33.2249093,27.4541557 31.5463861,28.1515515 30.1515943,29.5463433 C28.7568025,30.9411351 28.0594066,32.6196583 28.0594066,34.5819129 C28.0594066,36.5441675 28.7568025,38.2226907 30.1515943,39.6174825 C31.5463861,41.0122743 33.2249093,41.7096702 35.1871639,41.7096702 C37.1494185,41.7096702 38.8279417,41.0122743 40.2227334,39.6174825 C41.6175252,38.2226907 42.3149211,36.5441675 42.3149211,34.5819129 Z M50.4609294,47.8191764 C50.4609294,48.370729 50.2594006,48.8480342 49.8563429,49.2510919 C49.4532851,49.6541496 48.97598,49.8556784 48.4244273,49.8556784 C47.8516611,49.8556784 47.374356,49.6541496 46.9925118,49.2510919 L41.5353227,43.8098129 C39.6367088,45.1250538 37.5206558,45.7826743 35.1871639,45.7826743 C33.6703941,45.7826743 32.2199167,45.4883361 30.8357317,44.8996597 C29.4515467,44.3109834 28.2582838,43.5154747 27.2559429,42.5131339 C26.253602,41.510793 25.4580934,40.3175301 24.869417,38.9333451 C24.2807407,37.5491601 23.9864025,36.0986827 23.9864025,34.5819129 C23.9864025,33.0651431 24.2807407,31.6146657 24.869417,30.2304807 C25.4580934,28.8462957 26.253602,27.6530328 27.2559429,26.6506919 C28.2582838,25.6483511 29.4515467,24.8528425 30.8357317,24.2641661 C32.2199167,23.6754897 33.6703941,23.3811515 35.1871639,23.3811515 C36.7039336,23.3811515 38.154411,23.6754897 39.538596,24.2641661 C40.922781,24.8528425 42.116044,25.6483511 43.1183848,26.6506919 C44.1207257,27.6530328 44.9162343,28.8462957 45.5049107,30.2304807 C46.0935871,31.6146657 46.3879253,33.0651431 46.3879253,34.5819129 C46.3879253,36.9154049 45.7303048,39.0314578 44.4150639,40.9300717 L49.872253,46.3872609 C50.2647039,46.7797118 50.4609294,47.2570169 50.4609294,47.8191764 Z" transform="translate(-23.836 -23.26)"/>
</svg>
